<?xml version="1.0" encoding="utf-8" standalone="no"?>
<!DOCTYPE svg PUBLIC "-//W3C//DTD SVG 1.1//EN"
  "http://www.w3.org/Graphics/SVG/1.1/DTD/svg11.dtd">
<svg height="288pt" version="1.1" viewBox="0 0 216 288" width="216pt" xmlns="http://www.w3.org/2000/svg" xmlns:xlink="http://www.w3.org/1999/xlink">
 <metadata>
  <rdf:RDF xmlns:cc="http://creativecommons.org/ns#" xmlns:dc="http://purl.org/dc/elements/1.1/" xmlns:rdf="http://www.w3.org/1999/02/22-rdf-syntax-ns#">
   <cc:Work>
    <dc:type rdf:resource="http://purl.org/dc/dcmitype/StillImage"/>
    <dc:date>2022-06-14T17:54:29.380255</dc:date>
    <dc:format>image/svg+xml</dc:format>
    <dc:creator>
     <cc:Agent>
      <dc:title>Matplotlib v3.4.3, https://matplotlib.org/</dc:title>
     </cc:Agent>
    </dc:creator>
   </cc:Work>
  </rdf:RDF>
 </metadata>
 <defs>
  <style type="text/css">*{stroke-linecap:butt;stroke-linejoin:round;}</style>
 </defs>
 <g id="figure_1">
  <g id="patch_1">
   <path d="M 0 288 
L 216 288 
L 216 0 
L 0 0 
z
" style="fill:#ffffff;"/>
  </g>
  <g id="axes_1">
   <g id="patch_2">
    <path d="M 51 240.18 
L 204 240.18 
L 204 25.44 
L 51 25.44 
z
" style="fill:#ffffff;"/>
   </g>
   <g id="matplotlib.axis_1">
    <g id="xtick_1">
     <g id="text_1">
      <!-- 0 -->
      <g style="fill:#262626;" transform="translate(85.364261 258.038281)scale(0.11 -0.11)">
       <defs>
        <path d="M 2034 4250 
Q 1547 4250 1301 3770 
Q 1056 3291 1056 2328 
Q 1056 1369 1301 889 
Q 1547 409 2034 409 
Q 2525 409 2770 889 
Q 3016 1369 3016 2328 
Q 3016 3291 2770 3770 
Q 2525 4250 2034 4250 
z
M 2034 4750 
Q 2819 4750 3233 4129 
Q 3647 3509 3647 2328 
Q 3647 1150 3233 529 
Q 2819 -91 2034 -91 
Q 1250 -91 836 529 
Q 422 1150 422 2328 
Q 422 3509 836 4129 
Q 1250 4750 2034 4750 
z
" id="DejaVuSans-30" transform="scale(0.015625)"/>
       </defs>
       <use xlink:href="#DejaVuSans-30"/>
      </g>
     </g>
    </g>
    <g id="xtick_2">
     <g id="text_2">
      <!-- 2 -->
      <g style="fill:#262626;" transform="translate(147.182443 258.038281)scale(0.11 -0.11)">
       <defs>
        <path d="M 1228 531 
L 3431 531 
L 3431 0 
L 469 0 
L 469 531 
Q 828 903 1448 1529 
Q 2069 2156 2228 2338 
Q 2531 2678 2651 2914 
Q 2772 3150 2772 3378 
Q 2772 3750 2511 3984 
Q 2250 4219 1831 4219 
Q 1534 4219 1204 4116 
Q 875 4013 500 3803 
L 500 4441 
Q 881 4594 1212 4672 
Q 1544 4750 1819 4750 
Q 2544 4750 2975 4387 
Q 3406 4025 3406 3419 
Q 3406 3131 3298 2873 
Q 3191 2616 2906 2266 
Q 2828 2175 2409 1742 
Q 1991 1309 1228 531 
z
" id="DejaVuSans-32" transform="scale(0.015625)"/>
       </defs>
       <use xlink:href="#DejaVuSans-32"/>
      </g>
     </g>
    </g>
    <g id="text_3">
     <!-- Time (secs) rel. to stim -->
     <g style="fill:#262626;" transform="translate(58.658438 273.444063)scale(0.12 -0.12)">
      <defs>
       <path d="M -19 4666 
L 3928 4666 
L 3928 4134 
L 2272 4134 
L 2272 0 
L 1638 0 
L 1638 4134 
L -19 4134 
L -19 4666 
z
" id="DejaVuSans-54" transform="scale(0.015625)"/>
       <path d="M 603 3500 
L 1178 3500 
L 1178 0 
L 603 0 
L 603 3500 
z
M 603 4863 
L 1178 4863 
L 1178 4134 
L 603 4134 
L 603 4863 
z
" id="DejaVuSans-69" transform="scale(0.015625)"/>
       <path d="M 3328 2828 
Q 3544 3216 3844 3400 
Q 4144 3584 4550 3584 
Q 5097 3584 5394 3201 
Q 5691 2819 5691 2113 
L 5691 0 
L 5113 0 
L 5113 2094 
Q 5113 2597 4934 2840 
Q 4756 3084 4391 3084 
Q 3944 3084 3684 2787 
Q 3425 2491 3425 1978 
L 3425 0 
L 2847 0 
L 2847 2094 
Q 2847 2600 2669 2842 
Q 2491 3084 2119 3084 
Q 1678 3084 1418 2786 
Q 1159 2488 1159 1978 
L 1159 0 
L 581 0 
L 581 3500 
L 1159 3500 
L 1159 2956 
Q 1356 3278 1631 3431 
Q 1906 3584 2284 3584 
Q 2666 3584 2933 3390 
Q 3200 3197 3328 2828 
z
" id="DejaVuSans-6d" transform="scale(0.015625)"/>
       <path d="M 3597 1894 
L 3597 1613 
L 953 1613 
Q 991 1019 1311 708 
Q 1631 397 2203 397 
Q 2534 397 2845 478 
Q 3156 559 3463 722 
L 3463 178 
Q 3153 47 2828 -22 
Q 2503 -91 2169 -91 
Q 1331 -91 842 396 
Q 353 884 353 1716 
Q 353 2575 817 3079 
Q 1281 3584 2069 3584 
Q 2775 3584 3186 3129 
Q 3597 2675 3597 1894 
z
M 3022 2063 
Q 3016 2534 2758 2815 
Q 2500 3097 2075 3097 
Q 1594 3097 1305 2825 
Q 1016 2553 972 2059 
L 3022 2063 
z
" id="DejaVuSans-65" transform="scale(0.015625)"/>
       <path id="DejaVuSans-20" transform="scale(0.015625)"/>
       <path d="M 1984 4856 
Q 1566 4138 1362 3434 
Q 1159 2731 1159 2009 
Q 1159 1288 1364 580 
Q 1569 -128 1984 -844 
L 1484 -844 
Q 1016 -109 783 600 
Q 550 1309 550 2009 
Q 550 2706 781 3412 
Q 1013 4119 1484 4856 
L 1984 4856 
z
" id="DejaVuSans-28" transform="scale(0.015625)"/>
       <path d="M 2834 3397 
L 2834 2853 
Q 2591 2978 2328 3040 
Q 2066 3103 1784 3103 
Q 1356 3103 1142 2972 
Q 928 2841 928 2578 
Q 928 2378 1081 2264 
Q 1234 2150 1697 2047 
L 1894 2003 
Q 2506 1872 2764 1633 
Q 3022 1394 3022 966 
Q 3022 478 2636 193 
Q 2250 -91 1575 -91 
Q 1294 -91 989 -36 
Q 684 19 347 128 
L 347 722 
Q 666 556 975 473 
Q 1284 391 1588 391 
Q 1994 391 2212 530 
Q 2431 669 2431 922 
Q 2431 1156 2273 1281 
Q 2116 1406 1581 1522 
L 1381 1569 
Q 847 1681 609 1914 
Q 372 2147 372 2553 
Q 372 3047 722 3315 
Q 1072 3584 1716 3584 
Q 2034 3584 2315 3537 
Q 2597 3491 2834 3397 
z
" id="DejaVuSans-73" transform="scale(0.015625)"/>
       <path d="M 3122 3366 
L 3122 2828 
Q 2878 2963 2633 3030 
Q 2388 3097 2138 3097 
Q 1578 3097 1268 2742 
Q 959 2388 959 1747 
Q 959 1106 1268 751 
Q 1578 397 2138 397 
Q 2388 397 2633 464 
Q 2878 531 3122 666 
L 3122 134 
Q 2881 22 2623 -34 
Q 2366 -91 2075 -91 
Q 1284 -91 818 406 
Q 353 903 353 1747 
Q 353 2603 823 3093 
Q 1294 3584 2113 3584 
Q 2378 3584 2631 3529 
Q 2884 3475 3122 3366 
z
" id="DejaVuSans-63" transform="scale(0.015625)"/>
       <path d="M 513 4856 
L 1013 4856 
Q 1481 4119 1714 3412 
Q 1947 2706 1947 2009 
Q 1947 1309 1714 600 
Q 1481 -109 1013 -844 
L 513 -844 
Q 928 -128 1133 580 
Q 1338 1288 1338 2009 
Q 1338 2731 1133 3434 
Q 928 4138 513 4856 
z
" id="DejaVuSans-29" transform="scale(0.015625)"/>
       <path d="M 2631 2963 
Q 2534 3019 2420 3045 
Q 2306 3072 2169 3072 
Q 1681 3072 1420 2755 
Q 1159 2438 1159 1844 
L 1159 0 
L 581 0 
L 581 3500 
L 1159 3500 
L 1159 2956 
Q 1341 3275 1631 3429 
Q 1922 3584 2338 3584 
Q 2397 3584 2469 3576 
Q 2541 3569 2628 3553 
L 2631 2963 
z
" id="DejaVuSans-72" transform="scale(0.015625)"/>
       <path d="M 603 4863 
L 1178 4863 
L 1178 0 
L 603 0 
L 603 4863 
z
" id="DejaVuSans-6c" transform="scale(0.015625)"/>
       <path d="M 684 794 
L 1344 794 
L 1344 0 
L 684 0 
L 684 794 
z
" id="DejaVuSans-2e" transform="scale(0.015625)"/>
       <path d="M 1172 4494 
L 1172 3500 
L 2356 3500 
L 2356 3053 
L 1172 3053 
L 1172 1153 
Q 1172 725 1289 603 
Q 1406 481 1766 481 
L 2356 481 
L 2356 0 
L 1766 0 
Q 1100 0 847 248 
Q 594 497 594 1153 
L 594 3053 
L 172 3053 
L 172 3500 
L 594 3500 
L 594 4494 
L 1172 4494 
z
" id="DejaVuSans-74" transform="scale(0.015625)"/>
       <path d="M 1959 3097 
Q 1497 3097 1228 2736 
Q 959 2375 959 1747 
Q 959 1119 1226 758 
Q 1494 397 1959 397 
Q 2419 397 2687 759 
Q 2956 1122 2956 1747 
Q 2956 2369 2687 2733 
Q 2419 3097 1959 3097 
z
M 1959 3584 
Q 2709 3584 3137 3096 
Q 3566 2609 3566 1747 
Q 3566 888 3137 398 
Q 2709 -91 1959 -91 
Q 1206 -91 779 398 
Q 353 888 353 1747 
Q 353 2609 779 3096 
Q 1206 3584 1959 3584 
z
" id="DejaVuSans-6f" transform="scale(0.015625)"/>
      </defs>
      <use xlink:href="#DejaVuSans-54"/>
      <use x="57.958984" xlink:href="#DejaVuSans-69"/>
      <use x="85.742188" xlink:href="#DejaVuSans-6d"/>
      <use x="183.154297" xlink:href="#DejaVuSans-65"/>
      <use x="244.677734" xlink:href="#DejaVuSans-20"/>
      <use x="276.464844" xlink:href="#DejaVuSans-28"/>
      <use x="315.478516" xlink:href="#DejaVuSans-73"/>
      <use x="367.578125" xlink:href="#DejaVuSans-65"/>
      <use x="429.101562" xlink:href="#DejaVuSans-63"/>
      <use x="484.082031" xlink:href="#DejaVuSans-73"/>
      <use x="536.181641" xlink:href="#DejaVuSans-29"/>
      <use x="575.195312" xlink:href="#DejaVuSans-20"/>
      <use x="606.982422" xlink:href="#DejaVuSans-72"/>
      <use x="645.845703" xlink:href="#DejaVuSans-65"/>
      <use x="707.369141" xlink:href="#DejaVuSans-6c"/>
      <use x="735.152344" xlink:href="#DejaVuSans-2e"/>
      <use x="766.939453" xlink:href="#DejaVuSans-20"/>
      <use x="798.726562" xlink:href="#DejaVuSans-74"/>
      <use x="837.935547" xlink:href="#DejaVuSans-6f"/>
      <use x="899.117188" xlink:href="#DejaVuSans-20"/>
      <use x="930.904297" xlink:href="#DejaVuSans-73"/>
      <use x="983.003906" xlink:href="#DejaVuSans-74"/>
      <use x="1022.212891" xlink:href="#DejaVuSans-69"/>
      <use x="1049.996094" xlink:href="#DejaVuSans-6d"/>
     </g>
    </g>
   </g>
   <g id="matplotlib.axis_2">
    <g id="ytick_1">
     <g id="text_4">
      <!-- 0 -->
      <g style="fill:#262626;" transform="translate(34.50125 234.133426)scale(0.11 -0.11)">
       <use xlink:href="#DejaVuSans-30"/>
      </g>
     </g>
    </g>
    <g id="ytick_2">
     <g id="text_5">
      <!-- 5 -->
      <g style="fill:#262626;" transform="translate(34.50125 200.047712)scale(0.11 -0.11)">
       <defs>
        <path d="M 691 4666 
L 3169 4666 
L 3169 4134 
L 1269 4134 
L 1269 2991 
Q 1406 3038 1543 3061 
Q 1681 3084 1819 3084 
Q 2600 3084 3056 2656 
Q 3513 2228 3513 1497 
Q 3513 744 3044 326 
Q 2575 -91 1722 -91 
Q 1428 -91 1123 -41 
Q 819 9 494 109 
L 494 744 
Q 775 591 1075 516 
Q 1375 441 1709 441 
Q 2250 441 2565 725 
Q 2881 1009 2881 1497 
Q 2881 1984 2565 2268 
Q 2250 2553 1709 2553 
Q 1456 2553 1204 2497 
Q 953 2441 691 2322 
L 691 4666 
z
" id="DejaVuSans-35" transform="scale(0.015625)"/>
       </defs>
       <use xlink:href="#DejaVuSans-35"/>
      </g>
     </g>
    </g>
    <g id="ytick_3">
     <g id="text_6">
      <!-- 10 -->
      <g style="fill:#262626;" transform="translate(27.5025 165.961998)scale(0.11 -0.11)">
       <defs>
        <path d="M 794 531 
L 1825 531 
L 1825 4091 
L 703 3866 
L 703 4441 
L 1819 4666 
L 2450 4666 
L 2450 531 
L 3481 531 
L 3481 0 
L 794 0 
L 794 531 
z
" id="DejaVuSans-31" transform="scale(0.015625)"/>
       </defs>
       <use xlink:href="#DejaVuSans-31"/>
       <use x="63.623047" xlink:href="#DejaVuSans-30"/>
      </g>
     </g>
    </g>
    <g id="ytick_4">
     <g id="text_7">
      <!-- 15 -->
      <g style="fill:#262626;" transform="translate(27.5025 131.876283)scale(0.11 -0.11)">
       <use xlink:href="#DejaVuSans-31"/>
       <use x="63.623047" xlink:href="#DejaVuSans-35"/>
      </g>
     </g>
    </g>
    <g id="ytick_5">
     <g id="text_8">
      <!-- 20 -->
      <g style="fill:#262626;" transform="translate(27.5025 97.790569)scale(0.11 -0.11)">
       <use xlink:href="#DejaVuSans-32"/>
       <use x="63.623047" xlink:href="#DejaVuSans-30"/>
      </g>
     </g>
    </g>
    <g id="ytick_6">
     <g id="text_9">
      <!-- 25 -->
      <g style="fill:#262626;" transform="translate(27.5025 63.704855)scale(0.11 -0.11)">
       <use xlink:href="#DejaVuSans-32"/>
       <use x="63.623047" xlink:href="#DejaVuSans-35"/>
      </g>
     </g>
    </g>
    <g id="ytick_7">
     <g id="text_10">
      <!-- 30 -->
      <g style="fill:#262626;" transform="translate(27.5025 29.619141)scale(0.11 -0.11)">
       <defs>
        <path d="M 2597 2516 
Q 3050 2419 3304 2112 
Q 3559 1806 3559 1356 
Q 3559 666 3084 287 
Q 2609 -91 1734 -91 
Q 1441 -91 1130 -33 
Q 819 25 488 141 
L 488 750 
Q 750 597 1062 519 
Q 1375 441 1716 441 
Q 2309 441 2620 675 
Q 2931 909 2931 1356 
Q 2931 1769 2642 2001 
Q 2353 2234 1838 2234 
L 1294 2234 
L 1294 2753 
L 1863 2753 
Q 2328 2753 2575 2939 
Q 2822 3125 2822 3475 
Q 2822 3834 2567 4026 
Q 2313 4219 1838 4219 
Q 1578 4219 1281 4162 
Q 984 4106 628 3988 
L 628 4550 
Q 988 4650 1302 4700 
Q 1616 4750 1894 4750 
Q 2613 4750 3031 4423 
Q 3450 4097 3450 3541 
Q 3450 3153 3228 2886 
Q 3006 2619 2597 2516 
z
" id="DejaVuSans-33" transform="scale(0.015625)"/>
       </defs>
       <use xlink:href="#DejaVuSans-33"/>
       <use x="63.623047" xlink:href="#DejaVuSans-30"/>
      </g>
     </g>
    </g>
    <g id="text_11">
     <!-- dFF -->
     <g style="fill:#262626;" transform="translate(21.006875 143.520938)rotate(-90)scale(0.12 -0.12)">
      <defs>
       <path d="M 2906 2969 
L 2906 4863 
L 3481 4863 
L 3481 0 
L 2906 0 
L 2906 525 
Q 2725 213 2448 61 
Q 2172 -91 1784 -91 
Q 1150 -91 751 415 
Q 353 922 353 1747 
Q 353 2572 751 3078 
Q 1150 3584 1784 3584 
Q 2172 3584 2448 3432 
Q 2725 3281 2906 2969 
z
M 947 1747 
Q 947 1113 1208 752 
Q 1469 391 1925 391 
Q 2381 391 2643 752 
Q 2906 1113 2906 1747 
Q 2906 2381 2643 2742 
Q 2381 3103 1925 3103 
Q 1469 3103 1208 2742 
Q 947 2381 947 1747 
z
" id="DejaVuSans-64" transform="scale(0.015625)"/>
       <path d="M 628 4666 
L 3309 4666 
L 3309 4134 
L 1259 4134 
L 1259 2759 
L 3109 2759 
L 3109 2228 
L 1259 2228 
L 1259 0 
L 628 0 
L 628 4666 
z
" id="DejaVuSans-46" transform="scale(0.015625)"/>
      </defs>
      <use xlink:href="#DejaVuSans-64"/>
      <use x="63.476562" xlink:href="#DejaVuSans-46"/>
      <use x="120.996094" xlink:href="#DejaVuSans-46"/>
     </g>
    </g>
   </g>
   <g id="PolyCollection_1">
    <defs>
     <path d="M 57.954545 -58.764276 
L 57.954545 -60.532975 
L 60.061983 -60.946851 
L 62.169421 -59.289923 
L 64.27686 -58.708802 
L 66.384298 -58.773597 
L 68.491736 -58.976937 
L 70.599174 -60.335518 
L 72.706612 -58.704365 
L 74.81405 -58.893827 
L 76.921488 -61.599523 
L 79.028926 -57.78719 
L 81.136364 -57.200692 
L 83.243802 -56.551763 
L 85.35124 -57.587428 
L 87.458678 -57.974655 
L 89.566116 -58.045714 
L 91.673554 -58.045714 
L 93.780992 -58.045714 
L 95.88843 -58.045714 
L 97.995868 -58.045714 
L 100.103306 -58.045714 
L 102.210744 -58.045714 
L 104.318182 -152.632251 
L 106.42562 -174.0651 
L 108.533058 -165.087753 
L 110.640496 -160.338972 
L 112.747934 -153.770648 
L 114.855372 -148.984357 
L 116.96281 -144.169867 
L 119.070248 -137.753704 
L 121.177686 -135.743155 
L 123.285124 -130.396242 
L 125.392562 -127.008849 
L 127.5 -123.5026 
L 129.607438 -121.335399 
L 131.714876 -116.809435 
L 133.822314 -115.401747 
L 135.929752 -112.046641 
L 138.03719 -110.620448 
L 140.144628 -109.976615 
L 142.252066 -105.519642 
L 144.359504 -103.465038 
L 146.466942 -104.130521 
L 148.57438 -99.635921 
L 150.681818 -98.903656 
L 152.789256 -97.576042 
L 154.896694 -95.271764 
L 157.004132 -93.302176 
L 159.11157 -92.334185 
L 161.219008 -93.485854 
L 163.326446 -90.374435 
L 165.433884 -90.645378 
L 167.541322 -90.226195 
L 169.64876 -89.218759 
L 171.756198 -87.605566 
L 173.863636 -85.537219 
L 175.971074 -84.275466 
L 178.078512 -84.333811 
L 180.18595 -84.398076 
L 182.293388 -84.930641 
L 184.400826 -84.61567 
L 186.508264 -84.670032 
L 188.615702 -80.674936 
L 190.72314 -79.504855 
L 192.830579 -79.20453 
L 194.938017 -79.083461 
L 197.045455 -80.205607 
L 197.045455 -76.856583 
L 197.045455 -76.856583 
L 194.938017 -75.722959 
L 192.830579 -75.950126 
L 190.72314 -75.990052 
L 188.615702 -77.162796 
L 186.508264 -81.083799 
L 184.400826 -81.033483 
L 182.293388 -81.270244 
L 180.18595 -80.666681 
L 178.078512 -80.595251 
L 175.971074 -80.513755 
L 173.863636 -81.531712 
L 171.756198 -83.78715 
L 169.64876 -85.084721 
L 167.541322 -86.285368 
L 165.433884 -86.366481 
L 163.326446 -86.195344 
L 161.219008 -89.242762 
L 159.11157 -88.047845 
L 157.004132 -88.79241 
L 154.896694 -90.734344 
L 152.789256 -93.108264 
L 150.681818 -94.333782 
L 148.57438 -94.906148 
L 146.466942 -99.091799 
L 144.359504 -98.389069 
L 142.252066 -100.337242 
L 140.144628 -104.849396 
L 138.03719 -105.031988 
L 135.929752 -106.604559 
L 133.822314 -109.623451 
L 131.714876 -111.038401 
L 129.607438 -114.987775 
L 127.5 -117.191083 
L 125.392562 -120.326682 
L 123.285124 -123.322165 
L 121.177686 -128.689816 
L 119.070248 -130.377625 
L 116.96281 -136.384594 
L 114.855372 -140.743794 
L 112.747934 -145.299378 
L 110.640496 -151.464421 
L 108.533058 -156.244015 
L 106.42562 -164.495905 
L 104.318182 -141.410709 
L 102.210744 -58.045714 
L 100.103306 -58.045714 
L 97.995868 -58.045714 
L 95.88843 -58.045714 
L 93.780992 -58.045714 
L 91.673554 -58.045714 
L 89.566116 -58.045714 
L 87.458678 -56.315561 
L 85.35124 -56.047664 
L 83.243802 -54.851295 
L 81.136364 -55.521824 
L 79.028926 -56.127138 
L 76.921488 -59.981848 
L 74.81405 -57.21837 
L 72.706612 -57.138028 
L 70.599174 -58.602846 
L 68.491736 -57.215923 
L 66.384298 -56.912249 
L 64.27686 -57.151426 
L 62.169421 -57.600547 
L 60.061983 -59.148138 
L 57.954545 -58.764276 
z
" id="m4a84e0936b" style="stroke:#4169e1;stroke-opacity:0.3;"/>
    </defs>
    <g clip-path="url(#p61fec5b56f)">
     <use style="fill:#4169e1;fill-opacity:0.3;stroke:#4169e1;stroke-opacity:0.3;" x="0" xlink:href="#m4a84e0936b" y="288"/>
    </g>
   </g>
   <g id="PolyCollection_2">
    <defs>
     <path d="M 57.954545 -62.456409 
L 57.954545 -65.453258 
L 60.061983 -65.394005 
L 62.169421 -63.311835 
L 64.27686 -63.48013 
L 66.384298 -62.839419 
L 68.491736 -62.868225 
L 70.599174 -59.355396 
L 72.706612 -58.921042 
L 74.81405 -58.434475 
L 76.921488 -55.605263 
L 79.028926 -52.034428 
L 81.136364 -52.565463 
L 83.243802 -54.321306 
L 85.35124 -55.871905 
L 87.458678 -58.956427 
L 89.566116 -58.045714 
L 91.673554 -58.045714 
L 93.780992 -58.045714 
L 95.88843 -58.045714 
L 97.995868 -58.045714 
L 100.103306 -58.045714 
L 102.210744 -58.045714 
L 104.318182 -129.509792 
L 106.42562 -149.087969 
L 108.533058 -136.137147 
L 110.640496 -139.407239 
L 112.747934 -136.045474 
L 114.855372 -132.357039 
L 116.96281 -129.360524 
L 119.070248 -124.886568 
L 121.177686 -123.383606 
L 123.285124 -119.697979 
L 125.392562 -119.031522 
L 127.5 -118.194708 
L 129.607438 -116.256849 
L 131.714876 -116.18509 
L 133.822314 -115.280591 
L 135.929752 -109.978569 
L 138.03719 -106.909567 
L 140.144628 -108.07492 
L 142.252066 -106.933805 
L 144.359504 -100.095372 
L 146.466942 -106.077938 
L 148.57438 -102.742904 
L 150.681818 -105.520849 
L 152.789256 -105.730285 
L 154.896694 -101.457393 
L 157.004132 -102.019876 
L 159.11157 -98.644468 
L 161.219008 -97.834076 
L 163.326446 -97.774497 
L 165.433884 -97.608226 
L 167.541322 -100.286166 
L 169.64876 -98.568114 
L 171.756198 -99.168833 
L 173.863636 -99.658856 
L 175.971074 -98.603331 
L 178.078512 -101.178287 
L 180.18595 -99.020801 
L 182.293388 -99.680866 
L 184.400826 -99.955546 
L 186.508264 -98.881435 
L 188.615702 -99.540526 
L 190.72314 -98.434524 
L 192.830579 -94.685871 
L 194.938017 -95.359457 
L 197.045455 -95.289949 
L 197.045455 -88.553205 
L 197.045455 -88.553205 
L 194.938017 -88.535299 
L 192.830579 -87.683377 
L 190.72314 -91.51172 
L 188.615702 -92.665994 
L 186.508264 -92.082926 
L 184.400826 -93.015106 
L 182.293388 -92.560683 
L 180.18595 -91.914429 
L 178.078512 -94.017031 
L 175.971074 -91.075711 
L 173.863636 -92.751484 
L 171.756198 -91.878562 
L 169.64876 -91.074252 
L 167.541322 -92.92978 
L 165.433884 -90.109955 
L 163.326446 -90.128037 
L 161.219008 -90.346884 
L 159.11157 -91.562941 
L 157.004132 -94.903032 
L 154.896694 -94.038559 
L 152.789256 -97.968292 
L 150.681818 -98.247563 
L 148.57438 -95.102423 
L 146.466942 -98.38563 
L 144.359504 -91.84185 
L 142.252066 -98.562944 
L 140.144628 -99.337101 
L 138.03719 -97.676558 
L 135.929752 -100.885125 
L 133.822314 -105.985925 
L 131.714876 -106.787298 
L 129.607438 -107.337148 
L 127.5 -108.807824 
L 125.392562 -109.680954 
L 123.285124 -110.457193 
L 121.177686 -113.905959 
L 119.070248 -114.937234 
L 116.96281 -119.379554 
L 114.855372 -122.590888 
L 112.747934 -126.362519 
L 110.640496 -130.029734 
L 108.533058 -127.260572 
L 106.42562 -139.133857 
L 104.318182 -118.920487 
L 102.210744 -58.045714 
L 100.103306 -58.045714 
L 97.995868 -58.045714 
L 95.88843 -58.045714 
L 93.780992 -58.045714 
L 91.673554 -58.045714 
L 89.566116 -58.045714 
L 87.458678 -56.065272 
L 85.35124 -53.19544 
L 83.243802 -51.012194 
L 81.136364 -49.671591 
L 79.028926 -49.381528 
L 76.921488 -52.801349 
L 74.81405 -55.353209 
L 72.706612 -56.212434 
L 70.599174 -56.665909 
L 68.491736 -60.128095 
L 66.384298 -59.889764 
L 64.27686 -60.486745 
L 62.169421 -60.523166 
L 60.061983 -62.467805 
L 57.954545 -62.456409 
z
" id="mbd29406889" style="stroke:#228b22;stroke-opacity:0.3;"/>
    </defs>
    <g clip-path="url(#p61fec5b56f)">
     <use style="fill:#228b22;fill-opacity:0.3;stroke:#228b22;stroke-opacity:0.3;" x="0" xlink:href="#mbd29406889" y="288"/>
    </g>
   </g>
   <g id="line2d_1">
    <path clip-path="url(#p61fec5b56f)" d="M 57.954545 228.351374 
L 60.061983 227.952505 
L 62.169421 229.554765 
L 64.27686 230.069886 
L 66.384298 230.157077 
L 68.491736 229.90357 
L 70.599174 228.530818 
L 72.706612 230.078804 
L 74.81405 229.943901 
L 76.921488 227.209315 
L 79.028926 231.042836 
L 81.136364 231.638742 
L 83.243802 232.298471 
L 85.35124 231.182454 
L 87.458678 230.854892 
L 89.566116 229.954286 
L 91.673554 229.954286 
L 93.780992 229.954286 
L 95.88843 229.954286 
L 97.995868 229.954286 
L 100.103306 229.954286 
L 102.210744 229.954286 
L 104.318182 140.97852 
L 106.42562 118.719497 
L 108.533058 127.334116 
L 110.640496 132.098304 
L 112.747934 138.464987 
L 114.855372 143.135925 
L 116.96281 147.72277 
L 119.070248 153.934336 
L 121.177686 155.783514 
L 123.285124 161.140797 
L 125.392562 164.332234 
L 127.5 167.653159 
L 129.607438 169.838413 
L 131.714876 174.076082 
L 133.822314 175.487401 
L 135.929752 178.6744 
L 138.03719 180.173782 
L 140.144628 180.586995 
L 142.252066 185.071558 
L 144.359504 187.072946 
L 146.466942 186.38884 
L 148.57438 190.728965 
L 150.681818 191.381281 
L 152.789256 192.657847 
L 154.896694 194.996946 
L 157.004132 196.952707 
L 159.11157 197.808985 
L 161.219008 196.635692 
L 163.326446 199.715111 
L 165.433884 199.494071 
L 167.541322 199.744219 
L 169.64876 200.84826 
L 171.756198 202.303642 
L 173.863636 204.465534 
L 175.971074 205.605389 
L 178.078512 205.535469 
L 180.18595 205.467622 
L 182.293388 204.899557 
L 184.400826 205.175423 
L 186.508264 205.123085 
L 188.615702 209.081134 
L 190.72314 210.252546 
L 192.830579 210.422672 
L 194.938017 210.59679 
L 197.045455 209.468905 
" style="fill:none;stroke:#4169e1;stroke-linecap:round;"/>
   </g>
   <g id="line2d_2">
    <path clip-path="url(#p61fec5b56f)" d="M 57.954545 224.045167 
L 60.061983 224.069095 
L 62.169421 226.0825 
L 64.27686 226.016563 
L 66.384298 226.635409 
L 68.491736 226.50184 
L 70.599174 229.989348 
L 72.706612 230.433262 
L 74.81405 231.106158 
L 76.921488 233.796694 
L 79.028926 237.292022 
L 81.136364 236.881473 
L 83.243802 235.33325 
L 85.35124 233.466328 
L 87.458678 230.489151 
L 89.566116 229.954286 
L 91.673554 229.954286 
L 93.780992 229.954286 
L 95.88843 229.954286 
L 97.995868 229.954286 
L 100.103306 229.954286 
L 102.210744 229.954286 
L 104.318182 163.78486 
L 106.42562 143.889087 
L 108.533058 156.30114 
L 110.640496 153.281513 
L 112.747934 156.796003 
L 114.855372 160.526037 
L 116.96281 163.629961 
L 119.070248 168.088099 
L 121.177686 169.355218 
L 123.285124 172.922414 
L 125.392562 173.643762 
L 127.5 174.498734 
L 129.607438 176.203002 
L 131.714876 176.513806 
L 133.822314 177.366742 
L 135.929752 182.568153 
L 138.03719 185.706937 
L 140.144628 184.293989 
L 142.252066 185.251625 
L 144.359504 192.031389 
L 146.466942 185.768216 
L 148.57438 189.077337 
L 150.681818 186.115794 
L 152.789256 186.150711 
L 154.896694 190.252024 
L 157.004132 189.538546 
L 159.11157 192.896295 
L 161.219008 193.90952 
L 163.326446 194.048733 
L 165.433884 194.14091 
L 167.541322 191.392027 
L 169.64876 193.178817 
L 171.756198 192.476302 
L 173.863636 191.79483 
L 175.971074 193.160479 
L 178.078512 190.402341 
L 180.18595 192.532385 
L 182.293388 191.879225 
L 184.400826 191.514674 
L 186.508264 192.51782 
L 188.615702 191.89674 
L 190.72314 193.026878 
L 192.830579 196.815376 
L 194.938017 196.052622 
L 197.045455 196.078423 
" style="fill:none;stroke:#3cb371;stroke-linecap:round;"/>
   </g>
   <g id="patch_3">
    <path d="M 51 240.18 
L 204 240.18 
" style="fill:none;stroke:#262626;stroke-linecap:square;stroke-linejoin:miter;stroke-width:1.25;"/>
   </g>
   <g id="text_12">
    <!-- grand average all cells, all exps - -->
    <g style="fill:#262626;" transform="translate(44.878374 9.765746)scale(0.09996 -0.09996)">
     <defs>
      <path d="M 2906 1791 
Q 2906 2416 2648 2759 
Q 2391 3103 1925 3103 
Q 1463 3103 1205 2759 
Q 947 2416 947 1791 
Q 947 1169 1205 825 
Q 1463 481 1925 481 
Q 2391 481 2648 825 
Q 2906 1169 2906 1791 
z
M 3481 434 
Q 3481 -459 3084 -895 
Q 2688 -1331 1869 -1331 
Q 1566 -1331 1297 -1286 
Q 1028 -1241 775 -1147 
L 775 -588 
Q 1028 -725 1275 -790 
Q 1522 -856 1778 -856 
Q 2344 -856 2625 -561 
Q 2906 -266 2906 331 
L 2906 616 
Q 2728 306 2450 153 
Q 2172 0 1784 0 
Q 1141 0 747 490 
Q 353 981 353 1791 
Q 353 2603 747 3093 
Q 1141 3584 1784 3584 
Q 2172 3584 2450 3431 
Q 2728 3278 2906 2969 
L 2906 3500 
L 3481 3500 
L 3481 434 
z
" id="DejaVuSans-67" transform="scale(0.015625)"/>
      <path d="M 2194 1759 
Q 1497 1759 1228 1600 
Q 959 1441 959 1056 
Q 959 750 1161 570 
Q 1363 391 1709 391 
Q 2188 391 2477 730 
Q 2766 1069 2766 1631 
L 2766 1759 
L 2194 1759 
z
M 3341 1997 
L 3341 0 
L 2766 0 
L 2766 531 
Q 2569 213 2275 61 
Q 1981 -91 1556 -91 
Q 1019 -91 701 211 
Q 384 513 384 1019 
Q 384 1609 779 1909 
Q 1175 2209 1959 2209 
L 2766 2209 
L 2766 2266 
Q 2766 2663 2505 2880 
Q 2244 3097 1772 3097 
Q 1472 3097 1187 3025 
Q 903 2953 641 2809 
L 641 3341 
Q 956 3463 1253 3523 
Q 1550 3584 1831 3584 
Q 2591 3584 2966 3190 
Q 3341 2797 3341 1997 
z
" id="DejaVuSans-61" transform="scale(0.015625)"/>
      <path d="M 3513 2113 
L 3513 0 
L 2938 0 
L 2938 2094 
Q 2938 2591 2744 2837 
Q 2550 3084 2163 3084 
Q 1697 3084 1428 2787 
Q 1159 2491 1159 1978 
L 1159 0 
L 581 0 
L 581 3500 
L 1159 3500 
L 1159 2956 
Q 1366 3272 1645 3428 
Q 1925 3584 2291 3584 
Q 2894 3584 3203 3211 
Q 3513 2838 3513 2113 
z
" id="DejaVuSans-6e" transform="scale(0.015625)"/>
      <path d="M 191 3500 
L 800 3500 
L 1894 563 
L 2988 3500 
L 3597 3500 
L 2284 0 
L 1503 0 
L 191 3500 
z
" id="DejaVuSans-76" transform="scale(0.015625)"/>
      <path d="M 750 794 
L 1409 794 
L 1409 256 
L 897 -744 
L 494 -744 
L 750 256 
L 750 794 
z
" id="DejaVuSans-2c" transform="scale(0.015625)"/>
      <path d="M 3513 3500 
L 2247 1797 
L 3578 0 
L 2900 0 
L 1881 1375 
L 863 0 
L 184 0 
L 1544 1831 
L 300 3500 
L 978 3500 
L 1906 2253 
L 2834 3500 
L 3513 3500 
z
" id="DejaVuSans-78" transform="scale(0.015625)"/>
      <path d="M 1159 525 
L 1159 -1331 
L 581 -1331 
L 581 3500 
L 1159 3500 
L 1159 2969 
Q 1341 3281 1617 3432 
Q 1894 3584 2278 3584 
Q 2916 3584 3314 3078 
Q 3713 2572 3713 1747 
Q 3713 922 3314 415 
Q 2916 -91 2278 -91 
Q 1894 -91 1617 61 
Q 1341 213 1159 525 
z
M 3116 1747 
Q 3116 2381 2855 2742 
Q 2594 3103 2138 3103 
Q 1681 3103 1420 2742 
Q 1159 2381 1159 1747 
Q 1159 1113 1420 752 
Q 1681 391 2138 391 
Q 2594 391 2855 752 
Q 3116 1113 3116 1747 
z
" id="DejaVuSans-70" transform="scale(0.015625)"/>
      <path d="M 313 2009 
L 1997 2009 
L 1997 1497 
L 313 1497 
L 313 2009 
z
" id="DejaVuSans-2d" transform="scale(0.015625)"/>
     </defs>
     <use xlink:href="#DejaVuSans-67"/>
     <use x="63.476562" xlink:href="#DejaVuSans-72"/>
     <use x="104.589844" xlink:href="#DejaVuSans-61"/>
     <use x="165.869141" xlink:href="#DejaVuSans-6e"/>
     <use x="229.248047" xlink:href="#DejaVuSans-64"/>
     <use x="292.724609" xlink:href="#DejaVuSans-20"/>
     <use x="324.511719" xlink:href="#DejaVuSans-61"/>
     <use x="385.791016" xlink:href="#DejaVuSans-76"/>
     <use x="444.970703" xlink:href="#DejaVuSans-65"/>
     <use x="506.494141" xlink:href="#DejaVuSans-72"/>
     <use x="547.607422" xlink:href="#DejaVuSans-61"/>
     <use x="608.886719" xlink:href="#DejaVuSans-67"/>
     <use x="672.363281" xlink:href="#DejaVuSans-65"/>
     <use x="733.886719" xlink:href="#DejaVuSans-20"/>
     <use x="765.673828" xlink:href="#DejaVuSans-61"/>
     <use x="826.953125" xlink:href="#DejaVuSans-6c"/>
     <use x="854.736328" xlink:href="#DejaVuSans-6c"/>
     <use x="882.519531" xlink:href="#DejaVuSans-20"/>
     <use x="914.306641" xlink:href="#DejaVuSans-63"/>
     <use x="969.287109" xlink:href="#DejaVuSans-65"/>
     <use x="1030.810547" xlink:href="#DejaVuSans-6c"/>
     <use x="1058.59375" xlink:href="#DejaVuSans-6c"/>
     <use x="1086.376953" xlink:href="#DejaVuSans-73"/>
     <use x="1138.476562" xlink:href="#DejaVuSans-2c"/>
     <use x="1170.263672" xlink:href="#DejaVuSans-20"/>
     <use x="1202.050781" xlink:href="#DejaVuSans-61"/>
     <use x="1263.330078" xlink:href="#DejaVuSans-6c"/>
     <use x="1291.113281" xlink:href="#DejaVuSans-6c"/>
     <use x="1318.896484" xlink:href="#DejaVuSans-20"/>
     <use x="1350.683594" xlink:href="#DejaVuSans-65"/>
     <use x="1410.457031" xlink:href="#DejaVuSans-78"/>
     <use x="1469.636719" xlink:href="#DejaVuSans-70"/>
     <use x="1533.113281" xlink:href="#DejaVuSans-73"/>
     <use x="1585.212891" xlink:href="#DejaVuSans-20"/>
     <use x="1617" xlink:href="#DejaVuSans-2d"/>
    </g>
    <!-- baseline -->
    <g style="fill:#262626;" transform="translate(106.565408 20.95908)scale(0.09996 -0.09996)">
     <defs>
      <path d="M 3116 1747 
Q 3116 2381 2855 2742 
Q 2594 3103 2138 3103 
Q 1681 3103 1420 2742 
Q 1159 2381 1159 1747 
Q 1159 1113 1420 752 
Q 1681 391 2138 391 
Q 2594 391 2855 752 
Q 3116 1113 3116 1747 
z
M 1159 2969 
Q 1341 3281 1617 3432 
Q 1894 3584 2278 3584 
Q 2916 3584 3314 3078 
Q 3713 2572 3713 1747 
Q 3713 922 3314 415 
Q 2916 -91 2278 -91 
Q 1894 -91 1617 61 
Q 1341 213 1159 525 
L 1159 0 
L 581 0 
L 581 4863 
L 1159 4863 
L 1159 2969 
z
" id="DejaVuSans-62" transform="scale(0.015625)"/>
     </defs>
     <use xlink:href="#DejaVuSans-62"/>
     <use x="63.476562" xlink:href="#DejaVuSans-61"/>
     <use x="124.755859" xlink:href="#DejaVuSans-73"/>
     <use x="176.855469" xlink:href="#DejaVuSans-65"/>
     <use x="238.378906" xlink:href="#DejaVuSans-6c"/>
     <use x="266.162109" xlink:href="#DejaVuSans-69"/>
     <use x="293.945312" xlink:href="#DejaVuSans-6e"/>
     <use x="357.324219" xlink:href="#DejaVuSans-65"/>
    </g>
   </g>
   <g id="patch_4">
    <path clip-path="url(#p61fec5b56f)" d="M 87.458678 240.18 
L 87.458678 25.44 
L 106.42562 25.44 
L 106.42562 240.18 
z
" style="fill:#f08080;stroke:#f08080;stroke-linejoin:miter;"/>
   </g>
  </g>
 </g>
 <defs>
  <clipPath id="p61fec5b56f">
   <rect height="214.74" width="153" x="51" y="25.44"/>
  </clipPath>
 </defs>
</svg>
